<svg width="8" height="10" viewBox="0 0 8 10" fill="none" xmlns="http://www.w3.org/2000/svg">
<path d="M0 8.28571C0 8.75893 0.383929 9.14286 0.857143 9.14286H7.14286C7.61607 9.14286 8 8.75893 8 8.28571V3.42857H0V8.28571ZM5.71429 4.78571C5.71429 4.66786 5.81071 4.57143 5.92857 4.57143H6.64286C6.76071 4.57143 6.85714 4.66786 6.85714 4.78571V5.5C6.85714 5.61786 6.76071 5.71429 6.64286 5.71429H5.92857C5.81071 5.71429 5.71429 5.61786 5.71429 5.5V4.78571ZM5.71429 7.07143C5.71429 6.95357 5.81071 6.85714 5.92857 6.85714H6.64286C6.76071 6.85714 6.85714 6.95357 6.85714 7.07143V7.78571C6.85714 7.90357 6.76071 8 6.64286 8H5.92857C5.81071 8 5.71429 7.90357 5.71429 7.78571V7.07143ZM3.42857 4.78571C3.42857 4.66786 3.525 4.57143 3.64286 4.57143H4.35714C4.475 4.57143 4.57143 4.66786 4.57143 4.78571V5.5C4.57143 5.61786 4.475 5.71429 4.35714 5.71429H3.64286C3.525 5.71429 3.42857 5.61786 3.42857 5.5V4.78571ZM3.42857 7.07143C3.42857 6.95357 3.525 6.85714 3.64286 6.85714H4.35714C4.475 6.85714 4.57143 6.95357 4.57143 7.07143V7.78571C4.57143 7.90357 4.475 8 4.35714 8H3.64286C3.525 8 3.42857 7.90357 3.42857 7.78571V7.07143ZM1.14286 4.78571C1.14286 4.66786 1.23929 4.57143 1.35714 4.57143H2.07143C2.18929 4.57143 2.28571 4.66786 2.28571 4.78571V5.5C2.28571 5.61786 2.18929 5.71429 2.07143 5.71429H1.35714C1.23929 5.71429 1.14286 5.61786 1.14286 5.5V4.78571ZM1.14286 7.07143C1.14286 6.95357 1.23929 6.85714 1.35714 6.85714H2.07143C2.18929 6.85714 2.28571 6.95357 2.28571 7.07143V7.78571C2.28571 7.90357 2.18929 8 2.07143 8H1.35714C1.23929 8 1.14286 7.90357 1.14286 7.78571V7.07143ZM7.14286 1.14286H6.28571V0.285714C6.28571 0.128571 6.15714 0 6 0H5.42857C5.27143 0 5.14286 0.128571 5.14286 0.285714V1.14286H2.85714V0.285714C2.85714 0.128571 2.72857 0 2.57143 0H2C1.84286 0 1.71429 0.128571 1.71429 0.285714V1.14286H0.857143C0.383929 1.14286 0 1.52679 0 2V2.85714H8V2C8 1.52679 7.61607 1.14286 7.14286 1.14286Z" fill="#385DDA"/>
</svg>
