<svg width="10" height="8" viewBox="0 0 10 8" fill="none" xmlns="http://www.w3.org/2000/svg">
<path d="M9.75 3.25H8.75V2.25C8.75 2.1125 8.6375 2 8.5 2H8C7.8625 2 7.75 2.1125 7.75 2.25V3.25H6.75C6.6125 3.25 6.5 3.3625 6.5 3.5V4C6.5 4.1375 6.6125 4.25 6.75 4.25H7.75V5.25C7.75 5.3875 7.8625 5.5 8 5.5H8.5C8.6375 5.5 8.75 5.3875 8.75 5.25V4.25H9.75C9.8875 4.25 10 4.1375 10 4V3.5C10 3.3625 9.8875 3.25 9.75 3.25ZM3.5 4C4.60469 4 5.5 3.10469 5.5 2C5.5 0.895313 4.60469 0 3.5 0C2.39531 0 1.5 0.895313 1.5 2C1.5 3.10469 2.39531 4 3.5 4ZM4.9 4.5H4.63906C4.29219 4.65937 3.90625 4.75 3.5 4.75C3.09375 4.75 2.70938 4.65937 2.36094 4.5H2.1C0.940625 4.5 0 5.44062 0 6.6V7.25C0 7.66406 0.335938 8 0.75 8H6.25C6.66406 8 7 7.66406 7 7.25V6.6C7 5.44062 6.05938 4.5 4.9 4.5Z" fill="#385DDA"/>
</svg>
